<svg xmlns="http://www.w3.org/2000/svg" xmlns:xlink="http://www.w3.org/1999/xlink" width="1200" zoomAndPan="magnify" viewBox="0 0 900 449.999984" height="600" preserveAspectRatio="xMidYMid meet" version="1.0"><defs><g/><clipPath id="9b3710367d"><path d="M 407.128906 151.148438 L 433.378906 151.148438 L 433.378906 177.398438 L 407.128906 177.398438 Z M 407.128906 151.148438 " clip-rule="nonzero"/></clipPath></defs><g fill="#141414" fill-opacity="1"><g transform="translate(449.999981, 290.355241)"><g><path d="M 378.5 101 C 374.164062 101.664062 369.914062 102.164062 365.75 102.5 C 361.582031 102.832031 357.332031 103 353 103 C 327 103 303.5 97.164062 282.5 85.5 C 261.5 73.832031 242.082031 58.582031 224.25 39.75 C 206.414062 20.914062 190 -0.332031 175 -24 C 160 -47.664062 145.5 -71.582031 131.5 -95.75 C 117.5 -119.914062 103.75 -143.25 90.25 -165.75 C 76.75 -188.25 62.664062 -207.664062 48 -224 L 48 -36.5 C 48 -27.164062 50.582031 -19.414062 55.75 -13.25 C 60.914062 -7.082031 67.832031 -2.664062 76.5 0 L 17 0 C 25.664062 -2.664062 32.414062 -7.164062 37.25 -13.5 C 42.082031 -19.832031 44.5 -27.5 44.5 -36.5 L 44.5 -228 C 30.164062 -244 13.582031 -257.082031 -5.25 -267.25 C -24.082031 -277.414062 -44.5 -282.5 -66.5 -282.5 C -82.5 -282.5 -98 -280.5 -113 -276.5 L -114.5 -280.5 C -105.832031 -283.164062 -97.164062 -285 -88.5 -286 C -79.832031 -287 -71.164062 -287.5 -62.5 -287.5 C -39.164062 -287.5 -17.664062 -283.582031 2 -275.75 C 21.664062 -267.914062 39.832031 -257.332031 56.5 -244 C 73.164062 -230.664062 88.582031 -215.332031 102.75 -198 C 116.914062 -180.664062 130 -162.414062 142 -143.25 C 154 -124.082031 165.164062 -104.664062 175.5 -85 C 185.832031 -65.332031 195.664062 -46.664062 205 -29 L 205 -209 C 205 -227.664062 195.664062 -239.664062 177 -245 L 237 -245 C 228.332031 -242.332031 221.582031 -237.914062 216.75 -231.75 C 211.914062 -225.582031 209.5 -218 209.5 -209 L 209.5 -22 C 216.832031 -8.664062 225.164062 5 234.5 19 C 243.832031 33 254.25 45.832031 265.75 57.5 C 277.25 69.164062 290 78.75 304 86.25 C 318 93.75 333.5 97.5 350.5 97.5 L 358.5 97.5 C 361.832031 97.5 365.082031 97.5 368.25 97.5 C 371.414062 97.5 374.5 97.164062 377.5 96.5 Z M 378.5 101 "/></g></g></g><g fill="#141414" fill-opacity="1"><g transform="translate(128.152185, 296.453591)"><g><path d="M 62.40625 -27.59375 C 62.40625 -20 64.601562 -14 69 -9.59375 C 73.394531 -5.195312 78.992188 -2 85.796875 0 L 21.59375 0 C 28.800781 -2.394531 35.601562 -6.789062 42 -13.1875 C 48.394531 -19.59375 52.992188 -26.597656 55.796875 -34.203125 L 157.796875 -297.59375 L 260.40625 -34.203125 C 263.601562 -27.003906 267.703125 -20.101562 272.703125 -13.5 C 277.703125 -6.894531 284 -2.394531 291.59375 0 L 205.203125 0 C 210.398438 -1.601562 214.695312 -5.101562 218.09375 -10.5 C 221.5 -15.894531 223.203125 -20.992188 223.203125 -25.796875 C 223.203125 -28.992188 221.800781 -34.59375 219 -42.59375 C 216.195312 -50.59375 212.992188 -59.191406 209.390625 -68.390625 C 205.796875 -77.597656 202.296875 -86.398438 198.890625 -94.796875 C 195.492188 -103.203125 193 -109.40625 191.40625 -113.40625 L 92.40625 -113.40625 C 90.800781 -109.40625 88.398438 -103.503906 85.203125 -95.703125 C 82.003906 -87.898438 78.703125 -79.695312 75.296875 -71.09375 C 71.898438 -62.5 68.898438 -54.203125 66.296875 -46.203125 C 63.703125 -38.203125 62.40625 -32 62.40625 -27.59375 Z M 93.59375 -118.203125 L 189 -118.203125 L 141.59375 -241.796875 Z M 93.59375 -118.203125 "/></g></g></g><g clip-path="url(#9b3710367d)"><path fill="#141414" d="M 433.175781 164.175781 C 423.40625 165.972656 421.949219 167.429688 420.152344 177.199219 C 418.351562 167.429688 416.894531 165.972656 407.128906 164.175781 C 416.894531 162.375 418.351562 160.917969 420.152344 151.148438 C 421.949219 160.917969 423.40625 162.375 433.175781 164.175781 Z M 433.175781 164.175781 " fill-opacity="1" fill-rule="nonzero"/></g></svg>